<svg xmlns="http://www.w3.org/2000/svg" viewBox="0 0 30.02 29.8"><path d="m24.01,11.93c-3.31,0-6-2.68-5.99-5.96S20.72.02,24.02.02s6,2.68,5.99,5.96-2.7,5.95-6.01,5.95Zm.01-10.91c-2.76,0-5,2.22-5.01,4.95s2.24,4.96,4.99,4.96,5-2.22,5-4.95-2.24-4.96-4.99-4.96Zm-.03,28.78c-3.31,0-6-2.68-5.99-5.96s2.7-5.95,6.01-5.95,6,2.68,5.99,5.96-2.7,5.95-6.01,5.95Zm.01-10.91c-2.76,0-5,2.22-5.01,4.95s2.24,4.96,4.99,4.96,5-2.22,5-4.95-2.24-4.96-4.99-4.96ZM5.99,29.78C2.69,29.77,0,27.1,0,23.82s2.7-5.95,6.01-5.95,6,2.68,5.99,5.96-2.7,5.95-6.01,5.95Zm.01-10.91c-2.76,0-5,2.22-5.01,4.95s2.24,4.96,4.99,4.96,5-2.22,5-4.95-2.24-4.96-4.99-4.96Zm0-6.96C2.7,11.91.01,9.23.02,5.95S2.72,0,6.02,0s6,2.68,5.99,5.96-2.7,5.95-6.01,5.95Zm.01-10.91c-2.76,0-5,2.22-5.01,4.95s2.24,4.96,4.99,4.96,5-2.22,5-4.95S8.78,1,6.02,1Z"/></svg>