<svg xmlns="http://www.w3.org/2000/svg" viewBox="0 0 18.01 18.01"><path d="m13.51,0H4.51C1.99,0,.01,1.98,0,4.5v9c-.01,2.52,1.97,4.5,4.49,4.5h9c2.52.01,4.5-1.97,4.5-4.49V4.51C18.01,1.99,16.03.01,13.51,0Zm2.69,13.5c0,1.53-1.17,2.7-2.7,2.7H4.5c-1.53-.01-2.7-1.18-2.7-2.71V4.5c.01-1.53,1.18-2.7,2.71-2.7h9c1.53.01,2.7,1.18,2.7,2.71v9Zm-7.2-9.01c-2.52,0-4.5,1.98-4.5,4.5s1.98,4.5,4.5,4.5,4.5-1.98,4.5-4.5-1.98-4.5-4.5-4.5Zm0,7.2c-1.53,0-2.7-1.17-2.7-2.7s1.17-2.7,2.7-2.7,2.7,1.17,2.7,2.7-1.17,2.7-2.7,2.7Zm4.51-6.3c.5,0,.9-.4.9-.9s-.4-.9-.9-.9-.9.4-.9.9.4.9.9.9Z"/></svg>