<svg xmlns="http://www.w3.org/2000/svg" viewBox="0 0 18 16.8"><path d="m16.53,1.59C15.6.58,14.3.01,12.93,0c-1.37,0-2.67.57-3.61,1.57l-.32.34-.32-.34C6.84-.42,3.72-.54,1.73,1.32c-.09.08-.17.17-.26.26-1.96,2.12-1.97,5.41,0,7.54l7.05,7.49c.24.26.65.27.91.03,0,0,.02-.02.02-.02l7.07-7.47c1.96-2.12,1.97-5.41,0-7.54Zm-.94,6.65h0s-6.6,6.98-6.6,6.98l-6.59-6.99c-1.5-1.63-1.5-4.14,0-5.76,1.36-1.48,3.66-1.57,5.14-.2.07.07.14.14.21.21l.78.83c.26.26.68.26.93,0l.79-.83c1.36-1.48,3.66-1.57,5.14-.2.07.07.14.14.21.21,1.51,1.63,1.52,4.14,0,5.76Z"/></svg>