<svg xmlns="http://www.w3.org/2000/svg" viewBox="0 0 15.67 18"><path d="m12.72,12.11c-.86,0-1.64.37-2.18.96l-4.85-3.01c.13-.33.2-.69.2-1.07s-.07-.74-.2-1.07l4.85-3c.54.59,1.32.97,2.18.97,1.62,0,2.95-1.32,2.95-2.94S14.35,0,12.73,0s-2.95,1.32-2.95,2.94c0,.38.07.74.2,1.07l-4.85,3c-.54-.59-1.32-.97-2.18-.97C1.32,6.04,0,7.36,0,8.99s1.32,2.95,2.94,2.95c.86,0,1.64-.37,2.18-.96l4.85,3.01c-.13.33-.2.69-.2,1.07,0,1.62,1.32,2.95,2.94,2.95s2.95-1.32,2.95-2.94-1.32-2.95-2.94-2.95Zm-1.86-9.16c0-1.03.84-1.87,1.87-1.87s1.87.84,1.87,1.87-.84,1.87-1.87,1.87-1.87-.84-1.87-1.87Zm-7.91,7.92c-1.03,0-1.87-.84-1.87-1.87s.84-1.87,1.87-1.87,1.87.84,1.87,1.87-.84,1.87-1.87,1.87Zm7.9,4.19c0-1.03.84-1.87,1.87-1.87s1.87.84,1.87,1.87-.84,1.87-1.87,1.87-1.87-.84-1.87-1.87Z"/></svg>