<svg xmlns="http://www.w3.org/2000/svg" viewBox="0 0 29.87 30.02"><path d="m6.04,19.94c2.96,3.54,6.51,6.33,10.58,8.3,1.55.74,3.62,1.61,5.92,1.76.14,0,.28.01.42.01,1.55,0,2.79-.53,3.81-1.63,0,0,.02-.02.02-.03.36-.43.77-.83,1.2-1.24.29-.28.59-.57.88-.87,1.33-1.38,1.33-3.13,0-4.47l-3.73-3.74c-.63-.66-1.39-1.01-2.19-1.01s-1.56.35-2.21,1l-2.23,2.22c-.21-.12-.42-.22-.62-.32-.25-.12-.48-.24-.68-.37-2.03-1.29-3.86-2.97-5.62-5.13-.89-1.13-1.48-2.07-1.9-3.04.58-.53,1.13-1.08,1.66-1.62.19-.19.38-.39.57-.58.67-.67,1.03-1.45,1.03-2.24s-.35-1.57-1.03-2.24l-1.85-1.85c-.22-.22-.42-.43-.63-.65-.41-.42-.84-.86-1.26-1.25C7.54.33,6.79,0,6,0s-1.55.33-2.21.96L1.45,3.28C.61,4.13.13,5.15.03,6.34c-.12,1.49.15,3.06.86,4.97,1.08,2.95,2.72,5.7,5.16,8.63ZM1.54,6.47c.08-.83.39-1.52.99-2.11l2.31-2.31c.36-.35.76-.53,1.14-.53s.76.18,1.12.54c.42.39.81.79,1.23,1.22.21.22.43.44.65.66l1.85,1.85c.39.39.58.78.58,1.16s-.2.78-.59,1.16c-.19.19-.39.39-.58.58-.58.58-1.12,1.14-1.72,1.66-.01.01-.02.02-.03.03-.52.52-.44,1.01-.31,1.38,0,.02.01.03.02.05.48,1.15,1.14,2.25,2.18,3.55,1.86,2.3,3.83,4.09,5.99,5.46.27.17.55.31.82.45.25.12.48.24.68.37.02.01.04.02.07.04.21.11.4.16.6.16.5,0,.82-.32.93-.42l2.33-2.32c.36-.36.75-.55,1.14-.55.47,0,.86.29,1.1.55l3.74,3.75c.75.75.74,1.55-.02,2.34-.26.28-.54.55-.83.83-.44.42-.89.86-1.3,1.35-.72.77-1.57,1.13-2.67,1.13-.11,0-.22,0-.32-.01-2.04-.13-3.93-.93-5.36-1.61-3.86-1.88-7.26-4.53-10.07-7.9-2.32-2.79-3.87-5.39-4.9-8.18-.64-1.71-.88-3.08-.78-4.33Z"/></svg>