<svg xmlns="http://www.w3.org/2000/svg" viewBox="0 0 20.15 19.08"><path d="m20.11,7.21c-.1-.31-.36-.53-.68-.57l-5.94-.87L10.84.43c-.29-.57-1.23-.57-1.52,0l-2.66,5.34-5.93.85c-.32.05-.58.27-.68.57-.1.3-.02.64.21.86l4.28,4.16-1.01,5.87c-.06.32.07.63.34.82.15.11.32.16.5.16.13,0,.27-.03.4-.1l5.31-2.76,5.31,2.78c.29.15.63.13.89-.06.26-.19.39-.51.34-.82l-1.01-5.87,4.3-4.15c.23-.22.31-.56.22-.86Zm-6.02,4.12c-.2.19-.29.47-.24.74l.8,4.63-4.19-2.19c-.12-.06-.26-.1-.39-.1s-.27.03-.39.1l-4.18,2.18.8-4.63c.05-.27-.04-.55-.24-.74l-3.38-3.28,4.67-.67c.28-.04.51-.21.64-.46l2.1-4.21,2.09,4.21c.12.25.36.42.64.46l4.68.68-3.39,3.27Z"/></svg>