<svg xmlns="http://www.w3.org/2000/svg" viewBox="0 0 18.01 14.62"><path d="m18.01,1.74c-.67.29-1.38.49-2.13.58.77-.46,1.35-1.17,1.63-2.04-.71.42-1.5.72-2.34.89C14.49.45,13.53,0,12.48,0c-2.04,0-3.69,1.65-3.69,3.69,0,.29.02.57.08.84-3.07-.15-5.78-1.63-7.6-3.87-.32.55-.51,1.18-.51,1.86,0,1.28.66,2.41,1.64,3.07-.59-.01-1.17-.18-1.67-.46v.04c0,1.79,1.28,3.28,2.95,3.63-.3.08-.63.12-.97.12-.24,0-.47-.01-.7-.06.48,1.46,1.83,2.54,3.45,2.57-1.26.98-2.85,1.57-4.58,1.57-.3,0-.59-.01-.88-.05,1.63,1.06,3.57,1.66,5.66,1.66,6.79,0,10.51-5.61,10.51-10.49,0-.16,0-.32-.01-.48.73-.52,1.35-1.17,1.85-1.91Z"/></svg>